<svg width="100%" viewBox="0 0 680 160" role="img" xmlns="http://www.w3.org/2000/svg">
<title>RootForge Banner</title>
<desc>Pixel art arcade style banner for RootForge homelab</desc>

<rect x="0" y="0" width="680" height="160" rx="4" fill="#0a0a0f"/>
<rect x="2" y="2" width="676" height="156" rx="3" fill="none" stroke="#00ff88" stroke-width="1.5"/>
<rect x="6" y="6" width="668" height="148" rx="2" fill="none" stroke="#00ff8840" stroke-width="0.5"/>

<pattern id="pg" x="0" y="0" width="8" height="8" patternUnits="userSpaceOnUse">
  <rect x="0" y="0" width="1" height="1" fill="#00ff8808"/>
</pattern>
<rect x="0" y="0" width="680" height="160" fill="url(#pg)"/>

<!-- Corner decorations -->
<rect x="10" y="10" width="12" height="4" fill="#00ff88"/>
<rect x="10" y="10" width="4" height="12" fill="#00ff88"/>
<rect x="658" y="10" width="12" height="4" fill="#00ff88"/>
<rect x="666" y="10" width="4" height="12" fill="#00ff88"/>
<rect x="10" y="146" width="12" height="4" fill="#00ff88"/>
<rect x="10" y="134" width="4" height="12" fill="#00ff88"/>
<rect x="658" y="146" width="12" height="4" fill="#00ff88"/>
<rect x="666" y="134" width="4" height="12" fill="#00ff88"/>

<!-- R -->
<rect x="40" y="36" width="4" height="28" fill="#00ff88"/>
<rect x="44" y="36" width="12" height="4" fill="#00ff88"/>
<rect x="56" y="40" width="4" height="8" fill="#00ff88"/>
<rect x="44" y="48" width="12" height="4" fill="#00ff88"/>
<rect x="52" y="52" width="8" height="12" fill="#00ff88"/>
<!-- O -->
<rect x="68" y="36" width="4" height="28" fill="#00ff88"/>
<rect x="88" y="36" width="4" height="28" fill="#00ff88"/>
<rect x="72" y="36" width="16" height="4" fill="#00ff88"/>
<rect x="72" y="60" width="16" height="4" fill="#00ff88"/>
<!-- O -->
<rect x="100" y="36" width="4" height="28" fill="#00ff88"/>
<rect x="120" y="36" width="4" height="28" fill="#00ff88"/>
<rect x="104" y="36" width="16" height="4" fill="#00ff88"/>
<rect x="104" y="60" width="16" height="4" fill="#00ff88"/>
<!-- T -->
<rect x="132" y="36" width="24" height="4" fill="#00ff88"/>
<rect x="142" y="40" width="4" height="24" fill="#00ff88"/>
<!-- F -->
<rect x="164" y="36" width="4" height="28" fill="#00ff88"/>
<rect x="168" y="36" width="16" height="4" fill="#00ff88"/>
<rect x="168" y="48" width="12" height="4" fill="#00ff88"/>
<!-- O -->
<rect x="192" y="36" width="4" height="28" fill="#00ff88"/>
<rect x="212" y="36" width="4" height="28" fill="#00ff88"/>
<rect x="196" y="36" width="16" height="4" fill="#00ff88"/>
<rect x="196" y="60" width="16" height="4" fill="#00ff88"/>
<!-- R -->
<rect x="224" y="36" width="4" height="28" fill="#00ff88"/>
<rect x="228" y="36" width="12" height="4" fill="#00ff88"/>
<rect x="240" y="40" width="4" height="8" fill="#00ff88"/>
<rect x="228" y="48" width="12" height="4" fill="#00ff88"/>
<rect x="236" y="52" width="8" height="12" fill="#00ff88"/>
<!-- G -->
<rect x="252" y="36" width="4" height="28" fill="#00ff88"/>
<rect x="268" y="48" width="4" height="16" fill="#00ff88"/>
<rect x="256" y="36" width="16" height="4" fill="#00ff88"/>
<rect x="256" y="60" width="16" height="4" fill="#00ff88"/>
<rect x="260" y="48" width="8" height="4" fill="#00ff88"/>
<!-- E -->
<rect x="280" y="36" width="4" height="28" fill="#00ff88"/>
<rect x="284" y="36" width="16" height="4" fill="#00ff88"/>
<rect x="284" y="48" width="12" height="4" fill="#00ff88"/>
<rect x="284" y="60" width="16" height="4" fill="#00ff88"/>

<!-- Divider -->
<rect x="308" y="36" width="2" height="28" fill="#00ff8840"/>

<!-- Subtext -->
<text x="320" y="54" font-family="monospace" font-size="11" fill="#00ff88" font-weight="400">Hands-on IT</text>
<text x="320" y="68" font-family="monospace" font-size="11" fill="#00ff8899">Security · AI</text>

<!-- Bottom tagline -->
<text x="340" y="105" font-family="monospace" font-size="10" fill="#00ff8866" text-anchor="middle">Homelab fuer IT-Security, Pentesting und FISI-Ausbildung</text>

<!-- INSERT COMMIT -->
<text x="340" y="130" font-family="monospace" font-size="9" fill="#00ff88" text-anchor="middle">[ INSERT COMMIT ]</text>

<!-- Score style -->
<text x="640" y="46" font-family="monospace" font-size="9" fill="#00ff8866" text-anchor="end">SCORE</text>
<text x="640" y="58" font-family="monospace" font-size="10" fill="#00ff88" text-anchor="end">2026</text>
<text x="640" y="72" font-family="monospace" font-size="9" fill="#00ff8866" text-anchor="end">BERLIN</text>

<!-- Pixel dots -->
<rect x="40" y="120" width="4" height="4" fill="#00ff8840"/>
<rect x="48" y="120" width="4" height="4" fill="#00ff8866"/>
<rect x="56" y="120" width="4" height="4" fill="#00ff88"/>
<rect x="64" y="120" width="4" height="4" fill="#00ff8866"/>
<rect x="72" y="120" width="4" height="4" fill="#00ff8840"/>
<rect x="600" y="120" width="4" height="4" fill="#00ff8840"/>
<rect x="608" y="120" width="4" height="4" fill="#00ff8866"/>
<rect x="616" y="120" width="4" height="4" fill="#00ff88"/>
<rect x="624" y="120" width="4" height="4" fill="#00ff8866"/>
<rect x="632" y="120" width="4" height="4" fill="#00ff8840"/>
</svg>
